<?xml version="1.0" encoding="UTF-8"?>
<svg version="1.1" xmlns="http://www.w3.org/2000/svg" width="460" height="123">
<path d="M0 0 C6.95953731 4.97637712 12.42907244 11.93665131 14.3125 20.375 C16.12950609 31.38391925 15.28404001 40.51779795 9.13671875 49.984375 C3.7362304 57.06167451 -2.87663027 62.45175422 -11.6875 64.375 C-22.24864427 65.48063779 -31.59942059 64.66373313 -40.41015625 58.45703125 C-47.21376393 52.79570822 -50.91355809 46.69682574 -53.6875 38.375 C-54.85941716 19.12481979 -54.85941716 19.12481979 -49.6875 11.375 C-49.26339844 10.68277344 -48.83929688 9.99054687 -48.40234375 9.27734375 C-43.27250364 1.63259595 -36.07239462 -2.85832721 -27.22265625 -5.15625 C-17.43831272 -6.96537361 -8.4850272 -5.17730474 0 0 Z M-34.5625 17.1875 C-38.29216618 22.78199926 -39.19038786 27.68662698 -38.22265625 34.23828125 C-36.71060409 40.27545303 -32.41777765 43.7758757 -27.6875 47.375 C-23.50161228 49.46794386 -18.2459359 48.79917949 -13.6875 48.375 C-7.98751353 45.68046094 -4.1234761 41.24695221 -1.3125 35.625 C-0.26603284 30.18337076 -0.31996694 25.13845781 -2.81640625 20.09375 C-6.16295391 15.20614906 -9.99109433 12.09466964 -15.6875 10.375 C-22.99945268 9.00934347 -29.59153997 11.75005691 -34.5625 17.1875 Z " fill="#000000" transform="translate(354.6875,32.625)"/>
<path d="M0 0 C4.29 0 8.58 0 13 0 C14.8965218 3.31210746 16.79223453 6.62467373 18.6875 9.9375 C19.21794922 10.86369141 19.74839844 11.78988281 20.29492188 12.74414062 C20.82021484 13.66259766 21.34550781 14.58105469 21.88671875 15.52734375 C22.60154419 16.77632446 22.60154419 16.77632446 23.33081055 18.05053711 C25.57748659 22.02042057 27.78472669 26.01250804 30 30 C30.33 20.1 30.66 10.2 31 0 C36.28 0 41.56 0 47 0 C47 22.44 47 44.88 47 68 C42.71 68 38.42 68 34 68 C31.15381311 64.52765199 29.84880903 62.00724869 28 58 C26.6362006 55.5593291 25.2282491 53.14813306 23.80957031 50.73901367 C21.51610903 46.83979711 19.26218606 42.91744415 17 39 C16.67 48.57 16.34 58.14 16 68 C10.72 68 5.44 68 0 68 C0 45.56 0 23.12 0 0 Z " fill="#000000" transform="translate(374,28)"/>
<path d="M0 0 C35.66666667 0 35.66666667 0 46 10 C52.97926847 18.38778297 55.66461265 26.87154761 55.3359375 37.73046875 C54.41347511 46.70838758 50.85540676 52.87727621 45 59.61328125 C29.59729451 71.86725658 21.50086973 68 0 68 C0 45.56 0 23.12 0 0 Z M15 15 C15 27.54 15 40.08 15 53 C24.82959323 53 29.03645828 52.61888592 35.875 46.375 C39.03954442 41.34895887 40.40587531 36.56010633 39.7265625 30.6015625 C38.06667847 24.28538042 34.32868619 20.58641977 29 17 C23.873194 14.54340546 21.16334163 15 15 15 Z " fill="#000000" transform="translate(76,28)"/>
<path d="M0 0 C30 0 30 0 38 5 C42.65578158 9.65578158 43.79990194 14.47876444 44.3125 20.9375 C44.1306898 26.80087896 42.39742138 31.38759072 38.5625 35.8125 C36.4256676 37.63662522 34.25535257 39.32883642 32 41 C32.45439453 41.74685059 32.90878906 42.49370117 33.37695312 43.26318359 C35.05772942 46.03043092 36.73454511 48.80002649 38.40869141 51.57128906 C39.13464519 52.77114287 39.86217859 53.97004241 40.59130859 55.16796875 C41.63792204 56.88811711 42.67842869 58.61197647 43.71875 60.3359375 C44.66137695 61.89127197 44.66137695 61.89127197 45.62304688 63.47802734 C47 66 47 66 47 68 C34.07291811 70.2907057 34.07291811 70.2907057 28 68 C22.61670992 62.92876546 19.80636241 55.71004406 17 49 C16.67 55.27 16.34 61.54 16 68 C10.72 68 5.44 68 0 68 C0 45.56 0 23.12 0 0 Z M16 15 C16 18.96 16 22.92 16 27 C22.31268603 27.37552165 22.31268603 27.37552165 28 25 C28.061875 23.72125 28.12375 22.4425 28.1875 21.125 C28.22230469 20.40570313 28.25710938 19.68640625 28.29296875 18.9453125 C28.19628906 18.30335937 28.09960938 17.66140625 28 17 C23.7975546 14.19836974 20.99895065 14.85510288 16 15 Z " fill="#000000" transform="translate(253,28)"/>
<path d="M0 0 C4.95 0 9.9 0 15 0 C15.01458252 1.43311523 15.02916504 2.86623047 15.04418945 4.34277344 C15.10214675 9.65813187 15.17938027 14.97306553 15.26245117 20.28808594 C15.29571251 22.58879708 15.32374063 24.88959006 15.34643555 27.19042969 C15.37995873 30.49709968 15.4322746 33.80301888 15.48828125 37.109375 C15.49467117 38.13867126 15.5010611 39.16796753 15.50764465 40.22845459 C15.53733589 41.66949554 15.53733589 41.66949554 15.56762695 43.13964844 C15.57873001 43.98348083 15.58983307 44.82731323 15.60127258 45.69671631 C16.09049487 48.5227515 17.06688016 49.90782588 19 52 C21.3566226 53.08805146 21.3566226 53.08805146 24 53 C27.71261227 51.24886475 27.71261227 51.24886475 30 48 C30.11822971 46.45857825 30.17699811 44.91238903 30.20532227 43.36669922 C30.22526749 42.40585419 30.24521271 41.44500916 30.26576233 40.45504761 C30.29083107 38.89561935 30.29083107 38.89561935 30.31640625 37.3046875 C30.33718735 36.24210724 30.35796844 35.17952698 30.37937927 34.08474731 C30.44490261 30.68156562 30.50377273 27.27830511 30.5625 23.875 C30.60568257 21.57160634 30.64929677 19.26822074 30.69335938 16.96484375 C30.80058687 11.30997716 30.90184649 5.65503108 31 0 C36.28 0 41.56 0 47 0 C47.0745659 6.65280755 47.12879834 13.30536784 47.16479492 19.95849609 C47.17981295 22.21830487 47.20023345 24.47808484 47.22631836 26.73779297 C47.26300995 29.99974714 47.27979675 33.26131347 47.29296875 36.5234375 C47.30845261 37.52176605 47.32393646 38.5200946 47.33988953 39.54867554 C47.34168914 47.17493993 46.2860867 54.1898555 42.3125 60.8125 C35.71565263 67.05276103 29.57334917 69.35213927 20.58984375 69.20703125 C13.65640681 68.6527746 9.35021193 65.91031097 4.54296875 61.01171875 C-0.47978949 54.46305928 -0.4022315 48.78252877 -0.29296875 40.8203125 C-0.28872391 39.6524118 -0.28447906 38.48451111 -0.28010559 37.28121948 C-0.263354 33.56224214 -0.22570698 29.84381273 -0.1875 26.125 C-0.17244867 23.59896618 -0.15876105 21.07292383 -0.14648438 18.546875 C-0.11346179 12.3643732 -0.06170255 6.18227941 0 0 Z " fill="#000000" transform="translate(136,28)"/>
<path d="M0 0 C3.53393558 2.58023023 6.7659462 5.38543912 9.73828125 8.60546875 C8.26669754 12.22044614 6.32365794 14.01138386 3.23828125 16.35546875 C2.44421875 16.9690625 1.65015625 17.58265625 0.83203125 18.21484375 C-1.26171875 19.60546875 -1.26171875 19.60546875 -3.26171875 19.60546875 C-4.02484375 18.82171875 -4.78796875 18.03796875 -5.57421875 17.23046875 C-9.41379037 13.48018949 -12.37351247 12.5070101 -17.63671875 12.23046875 C-22.58093073 12.35386838 -25.26812461 13.70815536 -29.26171875 16.60546875 C-33.4008225 20.96830784 -35.32872028 24.93253186 -35.63671875 30.91796875 C-35.4633643 36.7060813 -33.77851868 41.11286882 -29.63671875 45.21484375 C-24.73536163 48.85001695 -20.04119084 49.28898842 -14.04296875 49.0390625 C-9.1553498 48.2770882 -6.71909331 46.06284331 -3.26171875 42.60546875 C0.42288027 42.91251867 2.68387304 44.89969741 5.48828125 47.16796875 C6.2875 47.80863281 7.08671875 48.44929688 7.91015625 49.109375 C8.5134375 49.60308594 9.11671875 50.09679687 9.73828125 50.60546875 C7.53988858 57.1017191 3.28988283 59.57687382 -2.484375 62.875 C-11.18714024 66.98665703 -21.64012398 67.26739231 -30.69921875 64.04296875 C-39.13560433 60.05562233 -46.511788 52.83172705 -50.296875 44.26171875 C-53.56511584 34.6546108 -53.27700818 24.93422389 -49.26171875 15.60546875 C-44.156941 6.04561224 -37.42114773 0.26737014 -27.26171875 -3.39453125 C-18.33718245 -6.09514244 -7.93090521 -4.89004 0 0 Z " fill="#000000" transform="translate(239.26171875,31.39453125)"/>
<path d="M0 0 C143.55 0 287.1 0 435 0 C435 34.98 435 69.96 435 106 C291.45 106 147.9 106 0 106 C0 71.02 0 36.04 0 0 Z M2 2 C2 35.66 2 69.32 2 104 C144.23 104 286.46 104 433 104 C433 70.34 433 36.68 433 2 C290.77 2 148.54 2 2 2 Z " fill="#000000" transform="translate(4,9)"/>
<path d="M0 0 C15.18 0 30.36 0 46 0 C46 5.61 46 11.22 46 17 C36.43 17 26.86 17 17 17 C17 20.3 17 23.6 17 27 C26.57 27 36.14 27 46 27 C46 32.61 46 38.22 46 44 C30.82 44 15.64 44 0 44 C0 29.48 0 14.96 0 0 Z " fill="#000000" transform="translate(23,52)"/>
<path d="M0 0 C15.18 0 30.36 0 46 0 C46 5.61 46 11.22 46 17 C30.82 17 15.64 17 0 17 C0 11.39 0 5.78 0 0 Z " fill="#000000" transform="translate(23,28)"/>
<path d="M0 0 C2.86801846 0.08864784 3.78417611 0.16414857 6.125 1.9375 C7.46661569 5.4257008 6.98928615 7.80025344 6.0625 11.375 C2.57125983 13.70249345 1.17027749 13.87799316 -2.9375 13.375 C-5.375 11.8125 -5.375 11.8125 -6.9375 9.375 C-6.73068708 3.37742524 -6.38544695 0.6081378 0 0 Z M-3.9375 3.375 C-5.23383621 4.44145115 -5.23383621 4.44145115 -5 6.9375 C-4.979375 7.741875 -4.95875 8.54625 -4.9375 9.375 C-3.9475 9.87 -3.9475 9.87 -2.9375 10.375 C-2.9375 8.065 -2.9375 5.755 -2.9375 3.375 C-3.2675 3.375 -3.5975 3.375 -3.9375 3.375 Z M3.0625 3.375 C3.0625 5.355 3.0625 7.335 3.0625 9.375 C3.7225 9.375 4.3825 9.375 5.0625 9.375 C5.0625 7.725 5.0625 6.075 5.0625 4.375 C4.4025 4.045 3.7425 3.715 3.0625 3.375 Z M-0.9375 4.375 C-0.6075 5.035 -0.2775 5.695 0.0625 6.375 C0.3925 5.715 0.7225 5.055 1.0625 4.375 C0.4025 4.375 -0.2575 4.375 -0.9375 4.375 Z M-0.9375 8.375 C-0.9375 9.035 -0.9375 9.695 -0.9375 10.375 C-1.9275 10.87 -1.9275 10.87 -2.9375 11.375 C-1.04570797 12.0564823 -1.04570797 12.0564823 1.0625 12.375 C1.7225 11.715 2.3825 11.055 3.0625 10.375 C1.7425 9.715 0.4225 9.055 -0.9375 8.375 Z " fill="#000000" transform="translate(448.9375,10.625)"/>
</svg>
